<svg width="82" height="78" viewBox="0 0 82 78" fill="none" xmlns="http://www.w3.org/2000/svg">
<circle cx="38" cy="40" r="38" fill="#2C2C2E"/>
<path d="M46.7589 50.6635H27.1504" stroke="white" stroke-width="2" stroke-linecap="round" stroke-linejoin="round"/>
<path d="M37.6084 25.8259H44.4269C45.4028 25.8452 46.3318 26.2479 47.0129 26.9469C47.694 27.646 48.0724 28.5851 48.0663 29.5611V44.0436" stroke="white" stroke-width="2" stroke-linecap="round" stroke-linejoin="round"/>
<path d="M47.9831 55.3939C47.8445 56.2451 47.4138 57.0215 46.7649 57.5896C46.116 58.1577 45.2895 58.482 44.4274 58.5069H30.7607C29.7859 58.4908 28.8573 58.0883 28.1791 57.3879C27.501 56.6875 27.1286 55.7465 27.144 54.7717V38.8983" stroke="white" stroke-width="2" stroke-linecap="round" stroke-linejoin="round"/>
<path d="M18 25.8259H20.6145" stroke="white" stroke-width="2" stroke-linecap="round" stroke-linejoin="round"/>
<path d="M31.0725 25.8259H28.458" stroke="white" stroke-width="2" stroke-linecap="round" stroke-linejoin="round"/>
<path d="M24.5361 29.7477V32.3622" stroke="white" stroke-width="2" stroke-linecap="round" stroke-linejoin="round"/>
<path d="M24.5361 19.2898V21.9043" stroke="white" stroke-width="2" stroke-linecap="round" stroke-linejoin="round"/>
<path d="M53.2167 58.5052L48.0575 55.4567C47.5935 55.1386 47.2267 54.6983 46.9975 54.1845C46.7683 53.6708 46.6858 53.1037 46.7589 52.5459V49.3563L44.9236 47.4285C44.6816 47.187 44.4962 46.8948 44.3808 46.5729C44.2654 46.2511 44.2228 45.9076 44.2561 45.5673C44.2895 45.227 44.3979 44.8984 44.5736 44.6051C44.7493 44.3118 44.9879 44.0611 45.2722 43.8711V43.8711C45.7169 43.5752 46.2503 43.4423 46.7819 43.4951C47.3134 43.5478 47.8103 43.7829 48.1882 44.1604L50.909 46.8812" stroke="white" stroke-width="2" stroke-linecap="round" stroke-linejoin="round"/>
<path d="M48.0664 31.8236L54.4492 40.7756C55.3991 42.1056 55.9097 43.6991 55.9098 45.3335V49.1279C55.91 50.2197 56.3439 51.2668 57.116 52.0387" stroke="white" stroke-width="2" stroke-linecap="round" stroke-linejoin="round"/>
<path d="M33.1348 36.9375C33.1348 38.151 33.6168 39.3147 34.4748 40.1728C35.3329 41.0308 36.4966 41.5128 37.7101 41.5128C38.9235 41.5128 40.0873 41.0308 40.9453 40.1728C41.8034 39.3147 42.2854 38.151 42.2854 36.9375C42.2854 35.7241 41.8034 34.5603 40.9453 33.7023C40.0873 32.8442 38.9235 32.3622 37.7101 32.3622C36.4966 32.3622 35.3329 32.8442 34.4748 33.7023C33.6168 34.5603 33.1348 35.7241 33.1348 36.9375V36.9375Z" stroke="white" stroke-width="2" stroke-linecap="round" stroke-linejoin="round"/>
<path d="M46.7592 50.6635H29.8662C29.8662 48.5833 30.6926 46.5883 32.1635 45.1174C33.6344 43.6464 35.6294 42.8201 37.7096 42.8201" stroke="white" stroke-width="2" stroke-linecap="round" stroke-linejoin="round"/>
<circle cx="69.5" cy="12.5" r="12.5" fill="#F40034"/>
<path d="M70.7429 5.89635V14.4134H68.2779V5.89635H70.7429ZM68.2099 15.5694H70.8109V18.1364H68.2099V15.5694Z" fill="white"/>
</svg>
