<svg width="25" height="25" viewBox="0 0 25 25" fill="none" xmlns="http://www.w3.org/2000/svg">
<path d="M8.66666 10.3095C8.66666 11.3262 9.07052 12.3012 9.78941 13.0201C10.5083 13.739 11.4833 14.1429 12.5 14.1429C13.5167 14.1429 14.4917 13.739 15.2106 13.0201C15.9295 12.3012 16.3333 11.3262 16.3333 10.3095C16.3333 9.29287 15.9295 8.31784 15.2106 7.59895C14.4917 6.88006 13.5167 6.4762 12.5 6.4762C11.4833 6.4762 10.5083 6.88006 9.78941 7.59895C9.07052 8.31784 8.66666 9.29287 8.66666 10.3095V10.3095Z" fill="white" stroke="white" stroke-linecap="round" stroke-linejoin="round"/>
<path d="M19.619 21.5238C18.6862 20.5731 17.5771 19.8186 16.3553 19.3037C15.1335 18.7889 13.8233 18.5238 12.5 18.5238C11.1767 18.5238 9.86645 18.7889 8.64467 19.3037C7.4229 19.8186 6.31371 20.5731 5.38093 21.5238C6.20923 22.3492 8.79266 24 12.5 24C16.2073 24 18.7907 22.3492 19.619 21.5238Z" fill="white" stroke="white" stroke-linecap="round" stroke-linejoin="round"/>
<path d="M1 12.5C1 15.55 2.2116 18.4751 4.36827 20.6317C6.52494 22.7884 9.45001 24 12.5 24C15.55 24 18.4751 22.7884 20.6317 20.6317C22.7884 18.4751 24 15.55 24 12.5C24 9.45001 22.7884 6.52494 20.6317 4.36827C18.4751 2.2116 15.55 1 12.5 1C9.45001 1 6.52494 2.2116 4.36827 4.36827C2.2116 6.52494 1 9.45001 1 12.5V12.5Z" stroke="white" stroke-linecap="round" stroke-linejoin="round"/>
</svg>
