<svg width="30" height="30" viewBox="0 0 30 30" fill="none" xmlns="http://www.w3.org/2000/svg">
<path d="M21.5341 15.9339C25.658 15.9339 29.001 12.5908 29.001 8.46695C29.001 4.34307 25.658 1 21.5341 1C17.4102 1 14.0671 4.34307 14.0671 8.46695C14.0671 12.5908 17.4102 15.9339 21.5341 15.9339Z" stroke="white" stroke-linecap="round" stroke-linejoin="round"/>
<path d="M21.5341 11.2671C21.6264 11.2671 21.7166 11.2944 21.7933 11.3457C21.8701 11.397 21.9299 11.4699 21.9652 11.5552C22.0005 11.6404 22.0098 11.7343 21.9918 11.8248C21.9738 11.9153 21.9293 11.9985 21.8641 12.0637C21.7988 12.129 21.7156 12.1735 21.6251 12.1915C21.5346 12.2095 21.4407 12.2002 21.3555 12.1649C21.2702 12.1296 21.1973 12.0698 21.146 11.993C21.0948 11.9163 21.0674 11.826 21.0674 11.7337C21.0674 11.61 21.1166 11.4913 21.2041 11.4037C21.2916 11.3162 21.4103 11.2671 21.5341 11.2671Z" stroke="white" stroke-linecap="round" stroke-linejoin="round"/>
<path d="M21.5342 8.46696V4.73349" stroke="white" stroke-linecap="round" stroke-linejoin="round"/>
<path d="M21.8514 19.8068C22.1031 21.1024 22.6316 22.3283 23.4008 23.4008H1C1 23.4008 2.86674 20.5024 2.86674 13.1338C2.86674 10.6583 3.8501 8.28428 5.60051 6.53388C7.35091 4.78347 9.72497 3.8001 12.2004 3.8001V1" stroke="white" stroke-linecap="round" stroke-linejoin="round"/>
<path d="M9.70898 27.1343C9.86706 27.6728 10.1953 28.1456 10.6445 28.4819C11.0938 28.8183 11.6399 29 12.2011 29C12.7623 29 13.3084 28.8183 13.7576 28.4819C14.2069 28.1456 14.5351 27.6728 14.6932 27.1343" stroke="white" stroke-linecap="round" stroke-linejoin="round"/>
</svg>
