<svg width="11" height="18" viewBox="0 0 11 18" fill="none" xmlns="http://www.w3.org/2000/svg">
<path d="M8.50781 17.2793L0.910156 9.84766C0.646484 9.58398 0.509766 9.29102 0.509766 8.94922C0.509766 8.60742 0.646484 8.29492 0.919922 8.04102L8.51758 0.619141C8.73242 0.404297 9.00586 0.287109 9.31836 0.287109C9.97266 0.287109 10.4805 0.794922 10.4805 1.43945C10.4805 1.75195 10.3535 2.05469 10.1289 2.2793L3.29297 8.93945L10.1289 15.6191C10.3535 15.8438 10.4805 16.1367 10.4805 16.459C10.4805 17.1035 9.97266 17.6113 9.31836 17.6113C9.00586 17.6113 8.73242 17.4941 8.50781 17.2793Z" fill="#FF1A36"/>
</svg>
