<svg width="47" height="47" viewBox="0 0 47 47" fill="none" xmlns="http://www.w3.org/2000/svg">
<path d="M34 20.4328V5.50124" stroke="white" stroke-width="2" stroke-linecap="round" stroke-linejoin="round"/>
<path d="M26.568 13.2726L40.8863 13.2726" stroke="white" stroke-width="2" stroke-linecap="round" stroke-linejoin="round"/>
<path d="M21.9996 13.0001C21.9996 16.1827 23.2639 19.235 25.5144 21.4855C27.7648 23.7359 30.8171 25.0002 33.9997 25.0002C37.1824 25.0002 40.2346 23.7359 42.4851 21.4855C44.7355 19.235 45.9998 16.1827 45.9998 13.0001C45.9998 9.81749 44.7355 6.76521 42.4851 4.51475C40.2346 2.26429 37.1824 1 33.9997 1C30.8171 1 27.7648 2.26429 25.5144 4.51475C23.2639 6.76521 21.9996 9.81749 21.9996 13.0001V13.0001Z" stroke="white" stroke-width="2" stroke-linecap="round" stroke-linejoin="round"/>
<path d="M0.999573 33.9999C0.999573 37.1825 2.26387 40.2348 4.51433 42.4852C6.76478 44.7357 9.81706 46 12.9997 46C16.1823 46 19.2346 44.7357 21.4851 42.4852C23.7355 40.2348 24.9998 37.1825 24.9998 33.9999C24.9998 30.8173 23.7355 27.765 21.4851 25.5145C19.2346 23.2641 16.1823 21.9998 12.9997 21.9998C9.81706 21.9998 6.76478 23.2641 4.51433 25.5145C2.26387 27.765 0.999573 30.8173 0.999573 33.9999V33.9999Z" stroke="white" stroke-width="2" stroke-linecap="round" stroke-linejoin="round"/>
<path d="M0.999573 8.50056L5.49962 16.0006L12.9997 11.5006" stroke="white" stroke-width="2" stroke-linecap="round" stroke-linejoin="round"/>
<path d="M15.8777 1.29987C13.1009 2.31241 10.7331 4.20794 9.13735 6.69569C7.54159 9.18343 6.80605 12.126 7.04357 15.072" stroke="white" stroke-width="2" stroke-linecap="round" stroke-linejoin="round"/>
<path d="M46.0001 38.501L41.5001 31.001L34 35.501" stroke="white" stroke-width="2" stroke-linecap="round" stroke-linejoin="round"/>
<path d="M31.1218 45.701C33.8978 44.6886 36.2652 42.7937 37.8609 40.3068C39.4565 37.8199 40.1925 34.8782 39.9559 31.9329" stroke="white" stroke-width="2" stroke-linecap="round" stroke-linejoin="round"/>
<path d="M7.78133 39.6765L9.76133 39.4065C8.78933 38.9865 8.04533 38.3385 7.52933 37.4625C7.01333 36.5745 6.75533 35.5665 6.75533 34.4385C6.75533 33.0585 7.12733 31.8525 7.87133 30.8205C8.62733 29.7885 9.63533 29.0685 10.8953 28.6605V26.8605H12.1193V28.3905C12.4313 28.3545 12.7493 28.3365 13.0733 28.3365C13.4093 28.3365 13.7273 28.3545 14.0273 28.3905V26.8605H15.2513V28.6605C16.4993 29.0685 17.4953 29.7945 18.2393 30.8385C18.9833 31.8825 19.3613 33.1125 19.3733 34.5285H17.8793C17.8793 33.4485 17.6453 32.5305 17.1773 31.7745C16.7093 31.0065 16.0673 30.4365 15.2513 30.0645V34.5285H14.0273V29.7045C13.7513 29.6565 13.4333 29.6325 13.0733 29.6325C12.7133 29.6325 12.3953 29.6565 12.1193 29.7045V34.5285H10.8953V30.0645C10.0793 30.4245 9.43133 30.9885 8.95133 31.7565C8.48333 32.5125 8.24933 33.4245 8.24933 34.4925C8.24933 35.4165 8.45333 36.2325 8.86133 36.9405C9.28133 37.6485 9.88133 38.2005 10.6613 38.5965C11.4533 38.9805 12.3833 39.1725 13.4513 39.1725H18.2393V40.5225H7.78133V39.6765Z" fill="white"/>
</svg>
