<svg width="28" height="28" viewBox="0 0 28 28" fill="none" xmlns="http://www.w3.org/2000/svg">
<path d="M1 14C1 17.4478 2.36964 20.7544 4.80761 23.1924C7.24559 25.6304 10.5522 27 14 27C17.4478 27 20.7544 25.6304 23.1924 23.1924C25.6304 20.7544 27 17.4478 27 14C27 10.5522 25.6304 7.24559 23.1924 4.80761C20.7544 2.36964 17.4478 1 14 1C10.5522 1 7.24559 2.36964 4.80761 4.80761C2.36964 7.24559 1 10.5522 1 14Z" stroke="white" stroke-linecap="round" stroke-linejoin="round"/>
<path d="M19.7854 10.2214L13.502 18.6129C13.3622 18.7988 13.1842 18.9526 12.9799 19.0639C12.7756 19.1752 12.5499 19.2414 12.3178 19.258C12.0858 19.2746 11.8529 19.2413 11.6348 19.1603C11.4168 19.0793 11.2186 18.9525 11.0537 18.7884L7.80371 15.5384" stroke="white" stroke-linecap="round" stroke-linejoin="round"/>
</svg>
