<svg width="20" height="20" viewBox="0 0 20 20" fill="none" xmlns="http://www.w3.org/2000/svg">
<path d="M9.96 0C4.45924 0 0 4.45924 0 9.96C0 15.4608 4.45924 19.92 9.96 19.92C15.4608 19.92 19.92 15.4608 19.92 9.96C19.9131 4.46209 15.4579 0.00685954 9.96 0ZM9.96 13.5456C10.8573 13.5442 11.5842 12.8169 11.5851 11.9196V8.0012C11.5851 7.10366 10.8575 6.37606 9.96 6.37606C9.06246 6.37606 8.33486 7.10366 8.33486 8.0012V9.17648C8.33486 9.57758 8.00971 9.90273 7.60861 9.90273C7.20751 9.90273 6.88236 9.57758 6.88236 9.17648V8.0012C6.88236 6.30147 8.26027 4.92356 9.96 4.92356C11.6597 4.92356 13.0376 6.30147 13.0376 8.0012V11.9196C13.0376 13.6194 11.6597 14.9973 9.96 14.9973C8.26027 14.9973 6.88236 13.6194 6.88236 11.9196C6.88236 11.5185 7.20751 11.1934 7.60861 11.1934C8.00971 11.1934 8.33486 11.5185 8.33486 11.9196C8.33577 12.8169 9.06271 13.5442 9.96 13.5456ZM9.23375 11.5287V9.17648C9.23375 8.77538 9.5589 8.45023 9.96 8.45023C10.3611 8.45023 10.6862 8.77538 10.6862 9.17648V11.5287C10.6862 11.9298 10.3611 12.2549 9.96 12.2549C9.5589 12.2549 9.23375 11.9298 9.23375 11.5287ZM6.99275 5.34935C6.33846 6.07911 5.97746 7.02523 5.97932 8.00535V11.9238C5.97738 13.5738 6.99439 15.0536 8.53544 15.6432C10.0765 16.2328 11.8215 15.8097 12.9214 14.5798C13.0895 14.3688 13.3605 14.2684 13.6254 14.3189C13.8904 14.3693 14.1055 14.5625 14.1842 14.8204C14.2628 15.0784 14.1921 15.3587 14.0004 15.5484C12.4975 17.2224 10.1179 17.7963 8.01717 16.9913C5.9164 16.1864 4.52959 14.1693 4.53014 11.9196V8.0012C4.52896 6.66478 5.02173 5.37506 5.91375 4.37991C6.1866 4.10628 6.62595 4.09422 6.91339 4.35248C7.20084 4.61074 7.23572 5.04887 6.99275 5.34935ZM15.3865 11.9196C15.3865 12.3207 15.0614 12.6459 14.6603 12.6459C14.2592 12.6459 13.934 12.3207 13.934 11.9196V8.0012C13.9318 6.72642 13.3196 5.52971 12.2872 4.78187C11.2549 4.03402 9.92698 3.82537 8.715 4.22055C8.33793 4.33347 7.93953 4.12545 7.81668 3.7515C7.69383 3.37754 7.89124 2.97378 8.26182 2.84109C9.91668 2.29814 11.7315 2.58131 13.1423 3.6026C14.5531 4.6239 15.3889 6.25954 15.3899 8.0012L15.3865 11.9196Z" fill="white"/>
</svg>
