<svg width="28" height="28" viewBox="0 0 28 28" fill="none" xmlns="http://www.w3.org/2000/svg">
<path d="M17.4653 21.7999H13.1328V26.1323" stroke="white" stroke-linecap="round" stroke-linejoin="round"/>
<path d="M26.3227 22.6467C25.8638 23.9878 24.9752 25.1399 23.7947 25.9243C22.6141 26.7087 21.2077 27.0816 19.7936 26.9851C18.3796 26.8885 17.0369 26.328 15.9739 25.3905C14.9108 24.453 14.187 23.1908 13.9146 21.7999" stroke="white" stroke-linecap="round" stroke-linejoin="round"/>
<path d="M22.6641 18.3339H26.9965V14.0014" stroke="white" stroke-linecap="round" stroke-linejoin="round"/>
<path d="M13.8066 17.487C14.2655 16.146 15.1542 14.9939 16.3347 14.2095C17.5152 13.425 18.9216 13.0522 20.3357 13.1487C21.7498 13.2452 23.0925 13.8057 24.1555 14.7432C25.2185 15.6808 25.9424 16.9429 26.2148 18.3339" stroke="white" stroke-linecap="round" stroke-linejoin="round"/>
<path d="M9.23102 23.1065C8.33604 20.1556 7.89849 17.0849 7.9336 14.0014C7.9336 8.64882 9.10971 3.96399 10.867 1.38416" stroke="white" stroke-linecap="round" stroke-linejoin="round"/>
<path d="M1.03076 13.1349H12.2663" stroke="white" stroke-linecap="round" stroke-linejoin="round"/>
<path d="M3.59961 6.20297H24.3966" stroke="white" stroke-linecap="round" stroke-linejoin="round"/>
<path d="M2.50146 20.0669H9.66677" stroke="white" stroke-linecap="round" stroke-linejoin="round"/>
<path d="M17.1309 1.38416C18.4922 3.64774 19.3584 6.17406 19.6726 8.7967" stroke="white" stroke-linecap="round" stroke-linejoin="round"/>
<path d="M9.33159 26.1323C7.29633 25.3492 5.49076 24.0667 4.08111 22.4029C2.67146 20.739 1.70304 18.7473 1.26498 16.611C0.826925 14.4748 0.933319 12.2626 1.57437 10.1783C2.21542 8.09389 3.37052 6.20428 4.93334 4.68339C6.49617 3.1625 8.41648 2.0592 10.5175 1.47506C12.6185 0.89092 14.8327 0.844711 16.9563 1.34069C19.0799 1.83667 21.0445 2.85889 22.6694 4.31326C24.2944 5.76762 25.5273 7.60739 26.2547 9.6632" stroke="white" stroke-linecap="round" stroke-linejoin="round"/>
</svg>
