<svg width="23" height="23" viewBox="0 0 23 23" fill="none" xmlns="http://www.w3.org/2000/svg">
<path fill-rule="evenodd" clip-rule="evenodd" d="M15.1582 21.6572C15.1582 20.9628 15.509 20.6156 16.2111 20.6156H18.9106C19.451 20.6156 19.8687 20.4723 20.163 20.1859C20.458 19.8994 20.6049 19.4654 20.6049 18.8838V16.2561C20.6049 15.5536 20.9519 15.2027 21.646 15.2027C22.3401 15.2027 22.6865 15.5536 22.6865 16.2561V19.0413C22.6865 20.2448 22.3779 21.1531 21.7607 21.7664C21.1434 22.3796 20.2219 22.6865 18.9949 22.6865H16.2111C15.509 22.6865 15.1582 22.343 15.1582 21.6572ZM20.6049 6.55629V3.91618C20.6049 3.34265 20.458 2.91297 20.163 2.62651C19.8687 2.34005 19.451 2.19621 18.9106 2.19621H16.2111C15.509 2.19621 15.1582 1.84961 15.1582 1.15517C15.1582 0.460729 15.509 0.11351 16.2111 0.11351H18.9949C20.2219 0.11351 21.1434 0.420427 21.7607 1.03364C22.3779 1.64748 22.6865 2.55583 22.6865 3.75869V6.55629C22.6865 7.25817 22.3401 7.60973 21.646 7.60973C20.9519 7.60973 20.6049 7.25817 20.6049 6.55629ZM15.007 10.3707C14.8335 10.1934 14.7468 9.96338 14.7468 9.68064V8.13056C14.7468 7.84782 14.8335 7.61779 15.007 7.43984C15.1806 7.26251 15.408 7.17384 15.6906 7.17384C15.9651 7.17384 16.1888 7.26437 16.3623 7.44604C16.5365 7.62771 16.6226 7.85588 16.6226 8.13056V9.68064C16.6226 9.96338 16.5365 10.1934 16.3623 10.3707C16.1888 10.5481 15.9651 10.6374 15.6906 10.6374C15.408 10.6374 15.1806 10.5481 15.007 10.3707ZM9.80209 13.1194C9.63724 12.9743 9.5542 12.7765 9.5542 12.526C9.5542 12.3164 9.62857 12.1372 9.77792 11.9872C9.92789 11.8384 10.107 11.7633 10.3171 11.7633H10.6796C10.736 11.7633 10.7812 11.7509 10.8128 11.7268C10.8451 11.7026 10.8612 11.6623 10.8612 11.6058V7.9247C10.8612 7.69839 10.93 7.51486 11.0669 7.37349C11.2045 7.23213 11.3941 7.16144 11.6358 7.16144C11.862 7.16144 12.0461 7.23213 12.1867 7.37349C12.328 7.51486 12.3987 7.69839 12.3987 7.9247V11.5209C12.3987 12.1025 12.2431 12.5502 11.9327 12.8651C11.6222 13.1801 11.1716 13.3376 10.5829 13.3376H10.5346H10.4862C10.1956 13.3376 9.96755 13.2651 9.80209 13.1194ZM9.26976 16.7286C8.58745 16.4539 8.01732 16.0546 7.55687 15.5294C7.48437 15.4408 7.42983 15.3502 7.39389 15.2572C7.35733 15.1642 7.33936 15.0656 7.33936 14.9602C7.33936 14.7426 7.41186 14.5628 7.55687 14.4214C7.70251 14.2807 7.88408 14.2094 8.1016 14.2094C8.23918 14.2094 8.35568 14.2379 8.45298 14.2943C8.54965 14.3507 8.64633 14.4276 8.743 14.5243C9.06587 14.8554 9.46187 15.1202 9.92913 15.3174C10.397 15.5158 10.8692 15.6144 11.3458 15.6144C11.8459 15.6144 12.328 15.5114 12.7922 15.3056C13.2564 15.0997 13.6455 14.8393 13.9597 14.5243C14.1537 14.3148 14.3551 14.2094 14.5652 14.2094C14.7833 14.2094 14.9661 14.2807 15.1161 14.4214C15.2655 14.5628 15.3398 14.7426 15.3398 14.9602C15.3398 15.0898 15.3219 15.2008 15.2853 15.2932C15.2487 15.3862 15.1948 15.473 15.1217 15.5536C14.6296 16.0465 14.049 16.4341 13.3791 16.7162C12.7092 16.9989 12.0312 17.1403 11.3458 17.1403C10.6437 17.1403 9.95206 17.0032 9.26976 16.7286ZM6.40731 10.3707C6.23007 10.1934 6.14083 9.96338 6.14083 9.68064V8.13056C6.14083 7.85588 6.23007 7.62771 6.40731 7.44604C6.58455 7.26437 6.8064 7.17384 7.07288 7.17384C7.35547 7.17384 7.58538 7.26251 7.76262 7.43984C7.94048 7.61779 8.02909 7.84782 8.02909 8.13056V9.68064C8.02909 9.96338 7.94048 10.1934 7.76262 10.3707C7.58538 10.5481 7.35547 10.6374 7.07288 10.6374C6.8064 10.6374 6.58455 10.5481 6.40731 10.3707ZM1.04557 21.7726C0.424001 21.1624 0.113525 20.2522 0.113525 19.0413V16.2561C0.113525 15.5536 0.459944 15.2027 1.15402 15.2027C1.8481 15.2027 2.19513 15.5536 2.19513 16.2561V18.8838C2.19513 19.4654 2.34201 19.8994 2.63699 20.1859C2.93197 20.4723 3.34904 20.6156 3.88942 20.6156H6.58889C7.29845 20.6156 7.65417 20.9628 7.65417 21.6572C7.65417 22.343 7.29845 22.6865 6.58889 22.6865H3.80514C2.58679 22.6865 1.66652 22.382 1.04557 21.7726ZM0.113525 6.55629V3.75869C0.113525 2.55583 0.424001 1.64748 1.04557 1.03364C1.66652 0.420427 2.58679 0.11351 3.80514 0.11351H6.58889C7.29845 0.11351 7.65417 0.460729 7.65417 1.15517C7.65417 1.84961 7.29845 2.19621 6.58889 2.19621H3.88942C3.34904 2.19621 2.93197 2.34005 2.63699 2.62651C2.34201 2.91297 2.19513 3.34265 2.19513 3.91618V6.55629C2.19513 7.25817 1.8481 7.60973 1.15402 7.60973C0.459944 7.60973 0.113525 7.25817 0.113525 6.55629Z" fill="white"/>
</svg>
