<svg width="25" height="25" viewBox="0 0 25 25" fill="none" xmlns="http://www.w3.org/2000/svg">
<path fill-rule="evenodd" clip-rule="evenodd" d="M23.2706 13.0367C23.1769 12.9134 23.1181 12.7644 23.0949 12.5894C22.9072 10.5629 22.4421 8.84805 21.6993 7.44534C20.9568 6.04262 20.0343 4.82059 18.932 3.77923C18.7835 3.64413 18.7075 3.49519 18.7035 3.33201C18.6995 3.16923 18.7483 3.0325 18.85 2.921C18.936 2.81764 19.0609 2.75823 19.2254 2.74195C19.3895 2.72608 19.542 2.78183 19.6825 2.90879C20.527 3.65593 21.2578 4.49056 21.8754 5.41268C22.4929 6.3348 22.9968 7.38389 23.3879 8.55994C23.7789 9.7364 24.0483 11.0716 24.1968 12.5658C24.2128 12.7486 24.1695 12.9036 24.0679 13.0306C23.9662 13.1579 23.8293 13.2214 23.6576 13.2214C23.4935 13.2214 23.3643 13.16 23.2706 13.0367ZM16.0651 8.38699C16.1003 8.21608 16.192 8.09115 16.3409 8.01139C16.4814 7.93244 16.6298 7.91616 16.7863 7.96378C16.9424 8.01139 17.0793 8.12289 17.1966 8.29746C17.5328 8.83829 17.8298 9.44218 18.0879 10.11C18.3457 10.7773 18.547 11.5363 18.6919 12.3868C18.8364 13.2377 18.9088 14.2152 18.9088 15.3196C18.9088 16.8456 18.7095 18.302 18.3104 19.6893C17.9118 21.0761 17.3727 22.2383 16.6923 23.1763C16.591 23.3196 16.4481 23.3949 16.2644 23.403C16.0807 23.4107 15.9342 23.355 15.8246 23.2357C15.7077 23.1169 15.6509 22.9757 15.6549 22.8125C15.6585 22.6498 15.7077 22.5086 15.8013 22.3893C16.4109 21.6027 16.8936 20.5833 17.2494 19.3316C17.6052 18.0798 17.7829 16.7504 17.7829 15.3436C17.7829 14.032 17.6501 12.8324 17.3843 11.743C17.1185 10.6544 16.7159 9.71239 16.1764 8.91764C16.0671 8.73492 16.0299 8.55831 16.0651 8.38699ZM12.7175 17.865C12.5846 17.9565 12.4321 17.9903 12.26 17.9663C12.0803 17.935 11.9591 17.8516 11.8966 17.716C11.8342 17.5809 11.8146 17.4377 11.8382 17.2867C11.9318 16.8179 11.9827 16.3272 11.9903 15.8144C11.9983 15.3017 11.9611 14.7771 11.879 14.2408C11.797 13.7044 11.6661 13.1661 11.4864 12.6252C11.4315 12.4507 11.4412 12.2936 11.5156 12.1544C11.5896 12.0157 11.7013 11.9261 11.8498 11.8863C12.0139 11.8309 12.1644 11.8386 12.3013 11.9099C12.4381 11.9815 12.5414 12.1206 12.6118 12.3274C12.7916 12.8755 12.9284 13.4501 13.0225 14.0499C13.1161 14.6502 13.157 15.2423 13.1454 15.8262C13.1338 16.4106 13.0729 16.949 12.9637 17.4418C12.9324 17.6326 12.8504 17.7738 12.7175 17.865ZM9.48118 23.707C9.30908 23.687 9.1802 23.6057 9.09415 23.4624C9.0005 23.3273 8.97288 23.1824 9.0121 23.0274C9.05133 22.8724 9.13338 22.7393 9.25825 22.6278C9.62567 22.3417 9.98548 21.9604 10.3373 21.4835C10.6887 21.0065 11.0093 20.3746 11.2987 19.588C11.3535 19.4529 11.4492 19.3515 11.586 19.284C11.7225 19.2164 11.877 19.2103 12.0491 19.2661C12.2056 19.3214 12.3053 19.4288 12.3481 19.588C12.3909 19.7471 12.3929 19.8899 12.3541 20.0169C12.1272 20.764 11.7794 21.4635 11.3103 22.1154C10.8412 22.767 10.3917 23.2557 9.96187 23.5816C9.81338 23.685 9.65329 23.7269 9.48118 23.707ZM6.93647 22.8365C6.77237 22.8166 6.63549 22.7352 6.52622 22.592C6.44017 22.4569 6.40695 22.314 6.42656 22.1631C6.44617 22.0121 6.53022 21.8729 6.67871 21.7455C7.43676 21.1258 8.01551 20.3351 8.41415 19.3731C8.81279 18.4115 9.0081 17.3783 9.0005 16.2734C9.0005 15.7489 8.94566 15.2325 8.8364 14.7238C8.72673 14.2152 8.61547 13.7203 8.5022 13.2393C8.38853 12.7583 8.3321 12.3115 8.3321 11.8981C8.3321 11.1989 8.49019 10.5885 8.80678 10.0681C9.12337 9.54758 9.55163 9.1443 10.0907 8.85782C10.6303 8.57174 11.2398 8.42891 11.9202 8.42891C12.9208 8.42891 13.7201 8.72109 14.3181 9.30504C14.916 9.88941 15.3479 10.6882 15.6136 11.7015C15.8794 12.7148 16.0163 13.8575 16.0243 15.1291C16.0243 16.409 15.8814 17.6265 15.596 18.783C15.3107 19.9396 14.9296 20.9707 14.4529 21.877C13.9759 22.7828 13.4523 23.5064 12.8816 24.0468C12.7407 24.166 12.5846 24.2157 12.4125 24.1957C12.2404 24.1758 12.1075 24.0985 12.0139 23.9634C11.9278 23.836 11.8966 23.6988 11.9202 23.5519C11.9434 23.405 12.0179 23.2756 12.1428 23.1645C12.6899 22.6717 13.1806 22.028 13.6144 21.2332C14.0483 20.4381 14.3865 19.5302 14.6287 18.5088C14.8712 17.4878 14.9729 16.3886 14.9336 15.2126C14.9256 14.1635 14.8204 13.2153 14.617 12.3689C14.4137 11.5224 14.0951 10.849 13.6613 10.3484C13.2274 9.84749 12.6471 9.59722 11.9202 9.59722C11.1854 9.59722 10.591 9.81778 10.1376 10.2589C9.6845 10.7 9.45757 11.2742 9.45757 11.9815C9.45757 12.3554 9.5144 12.7445 9.62767 13.1498C9.74094 13.5551 9.85821 14.0141 9.97948 14.5269C10.1008 15.0396 10.1652 15.6219 10.1728 16.2734C10.1808 17.5691 9.94426 18.7769 9.46357 19.8976C8.98289 21.0183 8.29288 21.9482 7.39394 22.6876C7.25306 22.8068 7.10096 22.8565 6.93647 22.8365ZM7.43516 15.6773C7.37633 15.8283 7.27267 15.9398 7.12418 16.0114C6.94447 16.0826 6.78237 16.0826 6.63749 16.0114C6.493 15.9398 6.38174 15.8165 6.30329 15.6415C6.10037 15.1332 5.92026 14.5883 5.76417 14.0084C5.60767 13.4281 5.52963 12.8002 5.52963 12.1247C5.52963 11.2107 5.69172 10.3582 6.01632 9.56752C6.34051 8.77643 6.79598 8.08301 7.38233 7.48684C7.96868 6.89068 8.65069 6.42799 9.42835 6.09796C10.206 5.76835 11.0445 5.60313 11.9434 5.60313C12.4986 5.60313 13.0397 5.67475 13.5676 5.81799C14.0951 5.96083 14.5426 6.15168 14.91 6.39015C15.0977 6.50165 15.213 6.63879 15.2562 6.80156C15.2991 6.96434 15.2814 7.11734 15.2034 7.26059C15.1486 7.36395 15.0509 7.4376 14.91 7.48115C14.7695 7.52469 14.621 7.50678 14.4646 7.42743C14.144 7.26059 13.8646 7.12915 13.6261 7.03392C13.3879 6.9387 13.1434 6.87318 12.8932 6.83737C12.6431 6.80156 12.3265 6.78366 11.9434 6.78366C10.9585 6.78366 10.0695 7.01602 9.27586 7.48115C8.48259 7.94587 7.85301 8.58395 7.38794 9.39457C6.92286 10.2052 6.69032 11.1155 6.69032 12.1247C6.69032 12.7685 6.77837 13.3427 6.95408 13.8473C7.13018 14.3523 7.28828 14.7995 7.42916 15.1886C7.4916 15.3635 7.4936 15.5267 7.43516 15.6773ZM4.57386 21.2686C4.42937 21.2133 4.32571 21.1176 4.26327 20.9825C4.20844 20.8633 4.19683 20.7282 4.22805 20.5772C4.25927 20.4262 4.36854 20.2834 4.55625 20.1483C4.96289 19.8618 5.30669 19.5281 5.58806 19.1468C5.86943 18.7651 6.08836 18.3199 6.24485 17.8113C6.29168 17.6444 6.38374 17.5215 6.52022 17.4418C6.6571 17.3624 6.79998 17.3465 6.94847 17.3942C7.10457 17.4418 7.21623 17.5415 7.28267 17.692C7.34911 17.8434 7.36272 17.9981 7.3235 18.1572C7.21423 18.5389 7.03452 18.9401 6.78438 19.3613C6.53423 19.7829 6.25446 20.1581 5.94588 20.4881C5.63689 20.8177 5.34592 21.0582 5.07215 21.2092C4.88444 21.3044 4.71834 21.3244 4.57386 21.2686ZM2.43979 18.6935C2.4594 18.5348 2.53184 18.3997 2.65672 18.2882C2.91487 18.0497 3.11419 17.7596 3.25467 17.4182C3.39556 17.0763 3.466 16.7105 3.466 16.3211C3.466 15.932 3.40716 15.5243 3.28989 15.099C3.17262 14.6742 3.05735 14.2111 2.94409 13.7101C2.83082 13.2096 2.77399 12.6533 2.77399 12.0413C2.77399 10.7855 3.01253 9.60129 3.48921 8.48832C3.9663 7.37575 4.62269 6.39218 5.45919 5.53761C6.29568 4.68345 7.26306 4.01363 8.36132 3.52897C9.45957 3.0443 10.6263 2.80177 11.8614 2.80177C13.3623 2.80177 14.7127 3.08784 15.9126 3.66C17.1125 4.23215 18.1423 5.04725 19.0025 6.10407C19.8622 7.16129 20.519 8.4167 20.9724 9.8715C21.4259 11.3259 21.6524 12.9394 21.6524 14.7116C21.6524 16.0232 21.5608 17.1675 21.3771 18.1454C21.1934 19.1228 20.988 19.9257 20.7611 20.5536C20.6987 20.7282 20.5874 20.8438 20.4273 20.8991C20.2668 20.9549 20.1123 20.9467 19.9638 20.8755C19.8309 20.8198 19.7373 20.7144 19.6825 20.5593C19.6276 20.4043 19.6356 20.2435 19.7061 20.0767C19.9094 19.5281 20.0967 18.805 20.2688 17.9069C20.4409 17.0088 20.523 15.9475 20.515 14.7238C20.515 12.5939 20.1595 10.722 19.4479 9.10849C18.7367 7.49498 17.7341 6.2351 16.4405 5.32926C15.1466 4.42301 13.6205 3.97009 11.8614 3.97009C10.7748 3.97009 9.75455 4.18047 8.80118 4.60165C7.84741 5.02324 7.00491 5.6076 6.27407 6.35434C5.54324 7.10147 4.96849 7.95971 4.55064 8.92944C4.1324 9.89958 3.92307 10.9365 3.92307 12.0413C3.92307 12.6851 3.9799 13.2296 4.09317 13.6743C4.20644 14.1199 4.31771 14.5431 4.42737 14.944C4.53664 15.3456 4.59147 15.8087 4.59147 16.3333C4.59947 16.8814 4.50342 17.4161 4.3041 17.9366C4.10478 18.4571 3.8058 18.8844 3.40716 19.2181C3.26668 19.3454 3.11019 19.3971 2.93808 19.3731C2.76638 19.3495 2.6295 19.2661 2.52784 19.1228C2.44979 18.9959 2.42017 18.8526 2.43979 18.6935ZM0.416981 8.85782C0.346939 8.68324 0.358546 8.46472 0.452202 8.20224C1.1166 6.36614 2.03715 4.84012 3.21385 3.62419C4.39015 2.40826 5.73095 1.50038 7.23584 0.900147C8.74034 0.299913 10.3097 0 11.9435 0C13.0301 0 14.0131 0.113129 14.8924 0.339793C15.7721 0.566051 16.6182 0.941654 17.4311 1.4662C17.564 1.54596 17.6657 1.64728 17.7361 1.77018C17.8065 1.89389 17.7985 2.04649 17.7125 2.22921C17.642 2.40419 17.5192 2.49778 17.3431 2.50959C17.1674 2.52139 16.9933 2.47988 16.8216 2.38425C16.1728 1.99522 15.4515 1.6949 14.6579 1.4841C13.8646 1.27372 12.9597 1.16832 11.9435 1.16832C10.505 1.16832 9.10376 1.44829 7.73975 2.00865C6.37573 2.569 5.15621 3.41177 4.08156 4.53614C3.00652 5.66091 2.16802 7.0738 1.56607 8.7744C1.49602 8.97339 1.38076 9.10646 1.22026 9.17401C1.06016 9.24156 0.905672 9.25133 0.757184 9.20372C0.60069 9.14837 0.487423 9.0328 0.416981 8.85782ZM0.75118 15.8205C0.606694 15.7412 0.507035 15.6101 0.452202 15.427C0.248881 14.6721 0.116002 13.9189 0.0535643 13.1677C-0.00887291 12.4169 -0.0168777 11.7194 0.0303505 11.0756C0.0459598 10.9088 0.106396 10.7716 0.212059 10.6642C0.317322 10.5568 0.467811 10.5112 0.663528 10.5271C0.827626 10.5352 0.954501 10.5926 1.04455 10.7C1.13421 10.8071 1.17944 10.9564 1.17944 11.1468C1.14822 11.9099 1.16943 12.6155 1.24387 13.2633C1.31792 13.9112 1.42958 14.5171 1.57807 15.0811C1.6169 15.272 1.60329 15.4388 1.53685 15.5821C1.47041 15.7249 1.35914 15.8205 1.20265 15.8681C1.04656 15.9157 0.896066 15.8999 0.75118 15.8205Z" fill="white"/>
</svg>
