<svg width="7" height="12" viewBox="0 0 7 12" fill="none" xmlns="http://www.w3.org/2000/svg">
<path fill-rule="evenodd" clip-rule="evenodd" d="M6.36254 6.59406L1.3841 11.7537C1.06741 12.0821 0.553956 12.0821 0.237421 11.7537C-0.0791402 11.4256 -0.0791402 10.8935 0.237421 10.5654L4.64257 5.99991L0.237549 1.43457C-0.0790121 1.10635 -0.0790121 0.574263 0.237549 0.24617C0.554109 -0.0820565 1.06754 -0.0820565 1.38423 0.24617L6.36267 5.4059C6.52095 5.57002 6.6 5.7849 6.6 5.99989C6.6 6.21498 6.5208 6.43002 6.36254 6.59406Z" fill="white"/>
<mask id="mask0" mask-type="alpha" maskUnits="userSpaceOnUse" x="0" y="0" width="7" height="12">
<path fill-rule="evenodd" clip-rule="evenodd" d="M6.36254 6.59406L1.3841 11.7537C1.06741 12.0821 0.553956 12.0821 0.237421 11.7537C-0.0791402 11.4256 -0.0791402 10.8935 0.237421 10.5654L4.64257 5.99991L0.237549 1.43457C-0.0790121 1.10635 -0.0790121 0.574263 0.237549 0.24617C0.554109 -0.0820565 1.06754 -0.0820565 1.38423 0.24617L6.36267 5.4059C6.52095 5.57002 6.6 5.7849 6.6 5.99989C6.6 6.21498 6.5208 6.43002 6.36254 6.59406Z" fill="white"/>
</mask>
<g mask="url(#mask0)">
</g>
</svg>
