<svg width="11" height="18" viewBox="0 0 11 18" fill="none" xmlns="http://www.w3.org/2000/svg">
<path d="M1.67188 17.6016C1.99414 17.6016 2.25781 17.4844 2.48242 17.2695L10.0801 9.84766C10.3438 9.57422 10.4805 9.29102 10.4805 8.93945C10.4805 8.59766 10.3535 8.29492 10.0801 8.04102L2.48242 0.609375C2.25781 0.394531 1.99414 0.277344 1.67188 0.277344C1.01758 0.277344 0.509766 0.785156 0.509766 1.42969C0.509766 1.74219 0.646484 2.04492 0.861328 2.26953L7.70703 8.94922L0.861328 15.6094C0.636719 15.8438 0.509766 16.127 0.509766 16.4492C0.509766 17.0938 1.01758 17.6016 1.67188 17.6016Z" fill="#FF1A36"/>
</svg>
