<svg width="12" height="8" viewBox="0 0 12 8" fill="none" xmlns="http://www.w3.org/2000/svg">
<path fill-rule="evenodd" clip-rule="evenodd" d="M6.59406 7.25714L11.7537 2.16556C12.0821 1.84167 12.0821 1.31655 11.7537 0.992817C11.4256 0.669061 10.8935 0.669061 10.5654 0.992817L5.99991 5.49808L1.43457 0.992948C1.10635 0.669192 0.574263 0.669192 0.24617 0.992948C-0.0820565 1.3167 -0.0820565 1.8418 0.24617 2.16569L5.4059 7.25728C5.57002 7.41915 5.7849 7.5 5.99989 7.5C6.21498 7.5 6.43002 7.419 6.59406 7.25714Z" fill="#EBEBF5" fill-opacity="0.6"/>
<mask id="mask0" mask-type="alpha" maskUnits="userSpaceOnUse" x="0" y="0" width="12" height="8">
<path fill-rule="evenodd" clip-rule="evenodd" d="M6.59406 7.25714L11.7537 2.16556C12.0821 1.84167 12.0821 1.31655 11.7537 0.992817C11.4256 0.669061 10.8935 0.669061 10.5654 0.992817L5.99991 5.49808L1.43457 0.992948C1.10635 0.669192 0.574263 0.669192 0.24617 0.992948C-0.0820565 1.3167 -0.0820565 1.8418 0.24617 2.16569L5.4059 7.25728C5.57002 7.41915 5.7849 7.5 5.99989 7.5C6.21498 7.5 6.43002 7.419 6.59406 7.25714Z" fill="white"/>
</mask>
<g mask="url(#mask0)">
</g>
</svg>
