<svg width="42" height="42" viewBox="0 0 42 42" fill="none" xmlns="http://www.w3.org/2000/svg">
<path d="M33.2226 17.1085C33.223 20.2949 32.2784 23.4099 30.5083 26.0595C28.7382 28.7091 26.2222 30.7743 23.2783 31.9938C20.3345 33.2134 17.0951 33.5326 13.9699 32.911C10.8446 32.2895 7.97389 30.7551 5.72072 28.5019C3.46756 26.2487 1.93317 23.378 1.31161 20.2528C0.69005 17.1275 1.00924 13.8881 2.2288 10.9443C3.44837 8.00046 5.51354 5.48441 8.16312 3.71433C10.8127 1.94424 13.9277 0.999649 17.1142 1C19.2296 1 21.3242 1.41666 23.2786 2.22618C25.233 3.03571 27.0088 4.22225 28.5046 5.71806C30.0004 7.21387 31.1869 8.98965 31.9964 10.944C32.806 12.8984 33.2226 14.9931 33.2226 17.1085Z" stroke="white" stroke-width="2" stroke-linecap="round" stroke-linejoin="round"/>
<path d="M28.5054 28.4995L41 40.9959" stroke="white" stroke-width="2" stroke-linecap="round" stroke-linejoin="round"/>
</svg>
