<svg width="18" height="18" viewBox="0 0 18 18" fill="none" xmlns="http://www.w3.org/2000/svg">
<path d="M5.58664 7.5603H4.84178C4.43041 7.5603 4.09692 7.88267 4.09692 8.28033C4.09692 8.67799 4.43041 9.00036 4.84178 9.00036H5.58664C5.99801 9.00036 6.3315 8.67799 6.3315 8.28033C6.3315 7.88267 5.99801 7.5603 5.58664 7.5603Z" fill="white"/>
<path d="M9.31076 7.5603H8.5659C8.15453 7.5603 7.82104 7.88267 7.82104 8.28033C7.82104 8.67799 8.15453 9.00036 8.5659 9.00036H9.31076C9.72213 9.00036 10.0556 8.67799 10.0556 8.28033C10.0556 7.88267 9.72213 7.5603 9.31076 7.5603Z" fill="white"/>
<path d="M13.0351 7.5603H12.2903C11.8789 7.5603 11.5454 7.88267 11.5454 8.28033C11.5454 8.67799 11.8789 9.00036 12.2903 9.00036H13.0351C13.4465 9.00036 13.78 8.67799 13.78 8.28033C13.78 7.88267 13.4465 7.5603 13.0351 7.5603Z" fill="white"/>
<path d="M5.58664 10.4404H4.84178C4.43041 10.4404 4.09692 10.7628 4.09692 11.1605C4.09692 11.5581 4.43041 11.8805 4.84178 11.8805H5.58664C5.99801 11.8805 6.3315 11.5581 6.3315 11.1605C6.3315 10.7628 5.99801 10.4404 5.58664 10.4404Z" fill="white"/>
<path d="M9.31076 10.4404H8.5659C8.15453 10.4404 7.82104 10.7628 7.82104 11.1605C7.82104 11.5581 8.15453 11.8805 8.5659 11.8805H9.31076C9.72213 11.8805 10.0556 11.5581 10.0556 11.1605C10.0556 10.7628 9.72213 10.4404 9.31076 10.4404Z" fill="white"/>
<path d="M13.0351 10.4404H12.2903C11.8789 10.4404 11.5454 10.7628 11.5454 11.1605C11.5454 11.5581 11.8789 11.8805 12.2903 11.8805H13.0351C13.4465 11.8805 13.78 11.5581 13.78 11.1605C13.78 10.7628 13.4465 10.4404 13.0351 10.4404Z" fill="white"/>
<path d="M5.58664 13.3206H4.84178C4.43041 13.3206 4.09692 13.6429 4.09692 14.0406C4.09692 14.4382 4.43041 14.7606 4.84178 14.7606H5.58664C5.99801 14.7606 6.3315 14.4382 6.3315 14.0406C6.3315 13.6429 5.99801 13.3206 5.58664 13.3206Z" fill="white"/>
<path d="M9.31076 13.3206H8.5659C8.15453 13.3206 7.82104 13.6429 7.82104 14.0406C7.82104 14.4382 8.15453 14.7606 8.5659 14.7606H9.31076C9.72213 14.7606 10.0556 14.4382 10.0556 14.0406C10.0556 13.6429 9.72213 13.3206 9.31076 13.3206Z" fill="white"/>
<path d="M13.0351 13.3206H12.2903C11.8789 13.3206 11.5454 13.6429 11.5454 14.0406C11.5454 14.4382 11.8789 14.7606 12.2903 14.7606H13.0351C13.4465 14.7606 13.78 14.4382 13.78 14.0406C13.78 13.6429 13.4465 13.3206 13.0351 13.3206Z" fill="white"/>
<path fill-rule="evenodd" clip-rule="evenodd" d="M13.9662 2.16009H16.0146C16.8373 2.16009 17.5043 2.80482 17.5043 3.60014V15.8406C17.5043 16.636 16.8373 17.2807 16.0146 17.2807H1.86227C1.03953 17.2807 0.372559 16.636 0.372559 15.8406V3.60014C0.372559 2.80482 1.03953 2.16009 1.86227 2.16009H2.97956C3.18525 2.16009 3.35199 2.32127 3.35199 2.5201V4.14016C3.35199 4.43841 3.6021 4.68019 3.91063 4.68019C4.21916 4.68019 4.46927 4.43841 4.46927 4.14016V0.720029C4.46927 0.322368 4.80276 0 5.21413 0C5.6255 0 5.95899 0.322368 5.95899 0.720029V1.9808C5.9594 2.07993 6.04265 2.16009 6.1452 2.16009H10.8006C11.0062 2.16009 11.173 2.32127 11.173 2.5201V4.14016C11.173 4.43841 11.4231 4.68019 11.7316 4.68019C12.0402 4.68019 12.2903 4.43841 12.2903 4.14016V0.720029C12.2903 0.322368 12.6238 0 13.0351 0C13.4465 0 13.78 0.322368 13.78 0.720029V1.98008C13.78 2.07949 13.8634 2.16009 13.9662 2.16009ZM15.6421 15.8406C15.8478 15.8406 16.0146 15.6794 16.0146 15.4806V6.84027C16.0146 6.64144 15.8478 6.48026 15.6421 6.48026H2.2347C2.02901 6.48026 1.86227 6.64144 1.86227 6.84027V15.4806C1.86227 15.6794 2.02901 15.8406 2.2347 15.8406H15.6421Z" fill="white"/>
</svg>
