<svg width="39" height="47" viewBox="0 0 39 47" fill="none" xmlns="http://www.w3.org/2000/svg">
<path d="M15.7841 43C16.0382 43.8654 16.5656 44.6252 17.2876 45.1657C18.0096 45.7062 18.8872 45.9983 19.7891 45.9983C20.691 45.9983 21.5686 45.7062 22.2906 45.1657C23.0126 44.6252 23.5401 43.8654 23.7941 43" stroke="white" stroke-width="2" stroke-linecap="round" stroke-linejoin="round"/>
<path d="M19.7841 5.5V1" stroke="white" stroke-width="2" stroke-linecap="round" stroke-linejoin="round"/>
<path d="M19.7841 5.5C23.7624 5.5 27.5777 7.08035 30.3907 9.8934C33.2038 12.7064 34.7841 16.5218 34.7841 20.5C34.7841 34.592 37.7841 37 37.7841 37H1.78412C1.78412 37 4.78412 33.168 4.78412 20.5C4.78412 16.5218 6.36447 12.7064 9.17752 9.8934C11.9906 7.08035 15.8059 5.5 19.7841 5.5V5.5Z" stroke="white" stroke-width="2" stroke-linecap="round" stroke-linejoin="round"/>
</svg>
