<svg width="39" height="48" viewBox="0 0 39 48" fill="none" xmlns="http://www.w3.org/2000/svg">
<path d="M28.6942 28.7404C28.782 31.0345 27.9568 33.2699 26.3996 34.9568C24.8424 36.6437 22.68 37.6447 20.3862 37.7404" stroke="white" stroke-width="2" stroke-linecap="round" stroke-linejoin="round"/>
<path d="M19.0021 46.7404C9.77211 46.7404 1.00211 40.0244 1.00211 31.7404C0.949788 28.5899 1.87044 25.4999 3.63854 22.8917C5.40664 20.2836 7.93614 18.2843 10.8821 17.1664C11.0015 17.1177 11.1313 17.1006 11.2592 17.1167C11.3871 17.1329 11.5086 17.1817 11.6122 17.2585C11.7157 17.3352 11.7977 17.4374 11.8502 17.5551C11.9027 17.6728 11.9241 17.802 11.9121 17.9304C11.7044 19.5192 11.8965 21.1347 12.471 22.6305C13.0455 24.1263 13.9842 25.4551 15.2021 26.4964C15.481 26.7326 15.8366 26.8588 16.2021 26.851C16.5675 26.8433 16.9175 26.7022 17.1861 26.4544C19.8261 24.0204 26.3001 15.9804 14.7401 3.10238C14.638 2.98886 14.573 2.8469 14.5538 2.69546C14.5346 2.54402 14.562 2.39031 14.6324 2.25487C14.7029 2.11944 14.813 2.00872 14.948 1.93751C15.083 1.86631 15.2366 1.838 15.3881 1.85638C26.2441 3.19038 37.0021 15.4384 37.0021 27.2404C37.0021 37.2404 31.0021 46.7404 19.0021 46.7404Z" stroke="white" stroke-width="2" stroke-linecap="round" stroke-linejoin="round"/>
</svg>
