<svg width="55" height="23" viewBox="0 0 55 23" fill="none" xmlns="http://www.w3.org/2000/svg">
<path d="M9.94464 3.49023C10.4837 2.83887 10.8655 1.95166 10.8655 1.05322C10.8655 0.929688 10.8543 0.806152 10.8318 0.705078C9.95587 0.73877 8.9002 1.28906 8.2713 2.03027C7.77715 2.5918 7.31671 3.49023 7.31671 4.38867C7.31671 4.52344 7.33917 4.6582 7.3504 4.70312C7.40655 4.71436 7.49639 4.72559 7.58624 4.72559C8.37237 4.72559 9.36065 4.19775 9.94464 3.49023ZM10.5623 4.9165C9.24835 4.9165 8.18145 5.71387 7.49639 5.71387C6.76641 5.71387 5.81182 4.96143 4.66632 4.96143C2.49883 4.96143 0.297663 6.7583 0.297663 10.1387C0.297663 12.25 1.10626 14.4736 2.117 15.9111C2.98174 17.124 3.73419 18.1235 4.82354 18.1235C5.90167 18.1235 6.37335 17.4048 7.70977 17.4048C9.06866 17.4048 9.37188 18.1011 10.5623 18.1011C11.7415 18.1011 12.5276 17.0229 13.2689 15.9561C14.0999 14.7319 14.4481 13.5415 14.4593 13.4854C14.3919 13.4629 12.1346 12.542 12.1346 9.95898C12.1346 7.72412 13.909 6.72461 14.0101 6.646C12.8421 4.96143 11.0565 4.9165 10.5623 4.9165ZM18.6155 18H21.513V12.6431H25.0842C28.3748 12.6431 30.5984 10.4644 30.5984 7.22998V7.20752C30.5984 3.96191 28.3748 1.79443 25.0842 1.79443H18.6155V18ZM24.3767 4.16406C26.4544 4.16406 27.6673 5.27588 27.6673 7.21875V7.24121C27.6673 9.18408 26.4544 10.3071 24.3767 10.3071H21.513V4.16406H24.3767ZM35.1814 18.2021C36.7986 18.2021 38.1013 17.5059 38.7751 16.3154H38.966V18H41.7287V9.61084C41.7287 7.0166 39.9543 5.48926 36.7986 5.48926C33.8786 5.48926 31.9021 6.85938 31.6325 8.92578L31.6213 9.02686H34.2605L34.2717 8.98193C34.5525 8.17334 35.3835 7.71289 36.6638 7.71289C38.1687 7.71289 38.966 8.38672 38.966 9.61084V10.6665L35.8103 10.8574C32.823 11.0371 31.1496 12.3174 31.1496 14.5073V14.5298C31.1496 16.7646 32.8454 18.2021 35.1814 18.2021ZM33.9123 14.395V14.3726C33.9123 13.3618 34.6423 12.7891 36.2033 12.688L38.966 12.5083V13.4966C38.966 14.9565 37.7195 16.0571 36.0349 16.0571C34.7995 16.0571 33.9123 15.4395 33.9123 14.395ZM44.7956 22.3125C47.5134 22.3125 48.9172 21.3354 49.9728 18.2583L54.3752 5.7251H51.4328L48.5803 15.3159H48.3669L45.5031 5.7251H42.4484L46.8395 18.0112L46.6936 18.5728C46.3903 19.6846 45.7053 20.1562 44.5598 20.1562C44.2678 20.1562 43.9533 20.145 43.7287 20.1226V22.2676C44.0656 22.3013 44.4587 22.3125 44.7956 22.3125Z" fill="black"/>
</svg>
