<svg width="23" height="20" viewBox="0 0 23 20" fill="none" xmlns="http://www.w3.org/2000/svg">
<path d="M7.61914 9.99995C7.61914 11.0103 8.0205 11.9793 8.73492 12.6937C9.44935 13.4081 10.4183 13.8095 11.4287 13.8095C12.439 13.8095 13.408 13.4081 14.1224 12.6937C14.8368 11.9793 15.2382 11.0103 15.2382 9.99995C15.2382 8.9896 14.8368 8.02064 14.1224 7.30621C13.408 6.59179 12.439 6.19043 11.4287 6.19043C10.4183 6.19043 9.44935 6.59179 8.73492 7.30621C8.0205 8.02064 7.61914 8.9896 7.61914 9.99995Z" fill="white"/>
<path d="M3.80952 0H1.90476C1.39959 0 0.915104 0.20068 0.557892 0.557892C0.20068 0.915104 0 1.39959 0 1.90476L0 3.80952C0 4.06211 0.10034 4.30435 0.278946 4.48296C0.457552 4.66156 0.699794 4.7619 0.952381 4.7619C1.20497 4.7619 1.44721 4.66156 1.62582 4.48296C1.80442 4.30435 1.90476 4.06211 1.90476 3.80952V2.38095C1.90476 2.25466 1.95493 2.13354 2.04423 2.04423C2.13354 1.95493 2.25466 1.90476 2.38095 1.90476H3.80952C4.06211 1.90476 4.30435 1.80442 4.48296 1.62582C4.66156 1.44721 4.7619 1.20497 4.7619 0.952381C4.7619 0.699794 4.66156 0.457552 4.48296 0.278946C4.30435 0.10034 4.06211 0 3.80952 0Z" fill="white"/>
<path d="M3.80952 18.0952H2.38095C2.25466 18.0952 2.13354 18.045 2.04423 17.9557C1.95493 17.8664 1.90476 17.7453 1.90476 17.619V16.1904C1.90476 15.9378 1.80442 15.6956 1.62582 15.517C1.44721 15.3384 1.20497 15.238 0.952381 15.238C0.699794 15.238 0.457552 15.3384 0.278946 15.517C0.10034 15.6956 0 15.9378 0 16.1904L0 18.0952C0 18.6004 0.20068 19.0848 0.557892 19.442C0.915104 19.7993 1.39959 19.9999 1.90476 19.9999H3.80952C4.06211 19.9999 4.30435 19.8996 4.48296 19.721C4.66156 19.5424 4.7619 19.3001 4.7619 19.0476C4.7619 18.795 4.66156 18.5527 4.48296 18.3741C4.30435 18.1955 4.06211 18.0952 3.80952 18.0952Z" fill="white"/>
<path d="M20.9524 0H19.0476C18.795 0 18.5528 0.10034 18.3742 0.278946C18.1956 0.457552 18.0952 0.699794 18.0952 0.952381C18.0952 1.20497 18.1956 1.44721 18.3742 1.62582C18.5528 1.80442 18.795 1.90476 19.0476 1.90476H20.4762C20.6025 1.90476 20.7236 1.95493 20.8129 2.04423C20.9022 2.13354 20.9524 2.25466 20.9524 2.38095V3.80952C20.9524 4.06211 21.0527 4.30435 21.2313 4.48296C21.4099 4.66156 21.6522 4.7619 21.9047 4.7619C22.1573 4.7619 22.3996 4.66156 22.5782 4.48296C22.7568 4.30435 22.8571 4.06211 22.8571 3.80952V1.90476C22.8571 1.39959 22.6564 0.915104 22.2992 0.557892C21.942 0.20068 21.4575 0 20.9524 0Z" fill="white"/>
<path d="M21.9047 15.238C21.6522 15.238 21.4099 15.3384 21.2313 15.517C21.0527 15.6956 20.9524 15.9378 20.9524 16.1904V17.619C20.9524 17.7453 20.9022 17.8664 20.8129 17.9557C20.7236 18.045 20.6025 18.0952 20.4762 18.0952H19.0476C18.795 18.0952 18.5528 18.1955 18.3742 18.3741C18.1956 18.5527 18.0952 18.795 18.0952 19.0476C18.0952 19.3001 18.1956 19.5424 18.3742 19.721C18.5528 19.8996 18.795 19.9999 19.0476 19.9999H20.9524C21.4575 19.9999 21.942 19.7993 22.2992 19.442C22.6564 19.0848 22.8571 18.6004 22.8571 18.0952V16.1904C22.8571 15.9378 22.7568 15.6956 22.5782 15.517C22.3996 15.3384 22.1573 15.238 21.9047 15.238Z" fill="white"/>
</svg>
